<!-- Material Design SVG Icon Sprite -->
<svg xmlns="http://www.w3.org/2000/svg" style="display: none;">
  <!-- Account Circle -->
  <symbol id="icon-account-circle" viewBox="0 0 24 24">
    <path d="M12 2C6.48 2 2 6.48 2 12s4.48 10 10 10 10-4.48 10-10S17.52 2 12 2zm0 3c1.66 0 3 1.34 3 3s-1.34 3-3 3-3-1.34-3-3 1.34-3 3-3zm0 14.2c-2.5 0-4.71-1.28-6-3.22.03-1.99 4-3.08 6-3.08 1.99 0 5.97 1.09 6 3.08-1.29 1.94-3.5 3.22-6 3.22z"/>
  </symbol>
  
  <!-- Chat -->
  <symbol id="icon-chat" viewBox="0 0 24 24">
    <path d="M20 2H4c-1.1 0-1.99.9-1.99 2L2 22l4-4h14c1.1 0 2-.9 2-2V4c0-1.1-.9-2-2-2zM6 9h12v2H6V9zm8 5H6v-2h8v2zm4-6H6V6h12v2z"/>
  </symbol>
  
  <!-- Public/Globe -->
  <symbol id="icon-public" viewBox="0 0 24 24">
    <path d="M12 2C6.48 2 2 6.48 2 12s4.48 10 10 10 10-4.48 10-10S17.52 2 12 2zm-1 17.93c-3.95-.49-7-3.85-7-7.93 0-.62.08-1.21.21-1.79L9 15v1c0 1.1.9 2 2 2v1.93zm6.9-2.54c-.26-.81-1-1.39-1.9-1.39h-1v-3c0-.55-.45-1-1-1H8v-2h2c.55 0 1-.45 1-1V7h2c1.1 0 2-.9 2-2v-.41c2.93 1.19 5 4.06 5 7.41 0 2.08-.8 3.97-2.1 5.39z"/>
  </symbol>
  
  <!-- Leaderboard -->
  <symbol id="icon-leaderboard" viewBox="0 0 24 24">
    <path d="M7.5 21H2V9h5.5v12zm7.25-18h-5.5v18h5.5V3zM22 11h-5.5v10H22V11z"/>
  </symbol>
  
  <!-- Add/Plus -->
  <symbol id="icon-add" viewBox="0 0 24 24">
    <path d="M19 13h-6v6h-2v-6H5v-2h6V5h2v6h6v2z"/>
  </symbol>
  
  <!-- Settings -->
  <symbol id="icon-settings" viewBox="0 0 24 24">
    <path d="M19.14,12.94c0.04-0.3,0.06-0.61,0.06-0.94c0-0.32-0.02-0.64-0.07-0.94l2.03-1.58c0.18-0.14,0.23-0.41,0.12-0.61 l-1.92-3.32c-0.12-0.22-0.37-0.29-0.59-0.22l-2.39,0.96c-0.5-0.38-1.03-0.7-1.62-0.94L14.4,2.81c-0.04-0.24-0.24-0.41-0.48-0.41 h-3.84c-0.24,0-0.43,0.17-0.47,0.41L9.25,5.35C8.66,5.59,8.12,5.92,7.63,6.29L5.24,5.33c-0.22-0.08-0.47,0-0.59,0.22L2.74,8.87 C2.62,9.08,2.66,9.34,2.86,9.48l2.03,1.58C4.84,11.36,4.8,11.69,4.8,12s0.02,0.64,0.07,0.94l-2.03,1.58 c-0.18,0.14-0.23,0.41-0.12,0.61l1.92,3.32c0.12,0.22,0.37,0.29,0.59,0.22l2.39-0.96c0.5,0.38,1.03,0.7,1.62,0.94l0.36,2.54 c0.05,0.24,0.24,0.41,0.48,0.41h3.84c0.24,0,0.44-0.17,0.47-0.41l0.36-2.54c0.59-0.24,1.13-0.56,1.62-0.94l2.39,0.96 c0.22,0.08,0.47,0,0.59-0.22l1.92-3.32c0.12-0.22,0.07-0.47-0.12-0.61L19.14,12.94z M12,15.6c-1.98,0-3.6-1.62-3.6-3.6 s1.62-3.6,3.6-3.6s3.6,1.62,3.6,3.6S13.98,15.6,12,15.6z"/>
  </symbol>
  
  <!-- Logout -->
  <symbol id="icon-logout" viewBox="0 0 24 24">
    <path d="M17 7l-1.41 1.41L18.17 11H8v2h10.17l-2.58 2.58L17 17l5-5zM4 5h8V3H4c-1.1 0-2 .9-2 2v14c0 1.1.9 2 2 2h8v-2H4V5z"/>
  </symbol>
  
  <!-- Videogame Asset -->
  <symbol id="icon-videogame" viewBox="0 0 24 24">
    <path d="M21,6H3C1.9,6,1,6.9,1,8v8c0,1.1,0.9,2,2,2h18c1.1,0,2-0.9,2-2V8C23,6.9,22.1,6,21,6z M11,13H9v2H8v-2H6v-1h2v-2h1v2h2 V13z M15,15c-0.55,0-1-0.45-1-1c0-0.55,0.45-1,1-1s1,0.45,1,1C16,14.55,15.55,15,15,15z M18,12c-0.55,0-1-0.45-1-1 c0-0.55,0.45-1,1-1s1,0.45,1,1C19,11.55,18.55,12,18,12z"/>
  </symbol>
  
  <!-- Thumb Up -->
  <symbol id="icon-thumb-up" viewBox="0 0 24 24">
    <path d="M1 21h4V9H1v12zm22-11c0-1.1-.9-2-2-2h-6.31l.95-4.57.03-.32c0-.41-.17-.79-.44-1.06L14.17 1 7.59 7.59C7.22 7.95 7 8.45 7 9v10c0 1.1.9 2 2 2h9c.83 0 1.54-.5 1.84-1.22l3.02-7.05c.09-.23.14-.47.14-.73v-2z"/>
  </symbol>
  
  <!-- Thumb Down -->
  <symbol id="icon-thumb-down" viewBox="0 0 24 24">
    <path d="M15 3H6c-.83 0-1.54.5-1.84 1.22l-3.02 7.05c-.09.23-.14.47-.14.73v2c0 1.1.9 2 2 2h6.31l-.95 4.57-.03.32c0 .41.17.79.44 1.06L9.83 23l6.59-6.59c.36-.36.58-.86.58-1.41V5c0-1.1-.9-2-2-2zm4 0v12h4V3h-4z"/>
  </symbol>
  
  <!-- Play Arrow -->
  <symbol id="icon-play-arrow" viewBox="0 0 24 24">
    <path d="M8 5v14l11-7z"/>
  </symbol>
  
  <!-- Timer -->
  <symbol id="icon-timer" viewBox="0 0 24 24">
    <path d="M15 1H9v2h6V1zm-4 13h2V8h-2v6zm8.03-6.61l1.42-1.42c-.43-.51-.9-.99-1.41-1.41l-1.42 1.42C16.07 4.74 14.12 4 12 4c-4.97 0-9 4.03-9 9s4.02 9 9 9 9-4.03 9-9c0-2.12-.74-4.07-1.97-5.61zM12 20c-3.87 0-7-3.13-7-7s3.13-7 7-7 7 3.13 7 7-3.13 7-7 7z"/>
  </symbol>
  
  <!-- Check Circle -->
  <symbol id="icon-check-circle" viewBox="0 0 24 24">
    <path d="M12 2C6.48 2 2 6.48 2 12s4.48 10 10 10 10-4.48 10-10S17.52 2 12 2zm-2 15l-5-5 1.41-1.41L10 14.17l7.59-7.59L19 8l-9 9z"/>
  </symbol>
  
  <!-- Trophy/Emoji Events -->
  <symbol id="icon-trophy" viewBox="0 0 24 24">
    <path d="M19 5h-2V3H7v2H5c-1.1 0-2 .9-2 2v1c0 2.55 1.92 4.63 4.39 4.94.63 1.5 1.98 2.63 3.61 2.96V19H7v2h10v-2h-4v-3.1c1.63-.33 2.98-1.46 3.61-2.96C19.08 12.63 21 10.55 21 8V7c0-1.1-.9-2-2-2zM7 10.82C5.84 10.4 5 9.3 5 8V7h2v3.82zM19 8c0 1.3-.84 2.4-2 2.82V7h2v1z"/>
  </symbol>
  
  <!-- Schedule -->
  <symbol id="icon-schedule" viewBox="0 0 24 24">
    <path d="M11.99 2C6.47 2 2 6.48 2 12s4.47 10 9.99 10C17.52 22 22 17.52 22 12S17.52 2 11.99 2zM12 20c-4.42 0-8-3.58-8-8s3.58-8 8-8 8 3.58 8 8-3.58 8-8 8zm.5-13H11v6l5.25 3.15.75-1.23-4.5-2.67z"/>
  </symbol>
  
  <!-- Chevron Left -->
  <symbol id="icon-chevron-left" viewBox="0 0 24 24">
    <path d="M15.41 7.41L14 6l-6 6 6 6 1.41-1.41L10.83 12z"/>
  </symbol>
  
  <!-- Chevron Right -->
  <symbol id="icon-chevron-right" viewBox="0 0 24 24">
    <path d="M10 6L8.59 7.41 13.17 12l-4.58 4.59L10 18l6-6z"/>
  </symbol>
  
  <!-- Search -->
  <symbol id="icon-search" viewBox="0 0 24 24">
    <path d="M15.5 14h-.79l-.28-.27C15.41 12.59 16 11.11 16 9.5 16 5.91 13.09 3 9.5 3S3 5.91 3 9.5 5.91 16 9.5 16c1.61 0 3.09-.59 4.23-1.57l.27.28v.79l5 4.99L20.49 19l-4.99-5zm-6 0C7.01 14 5 11.99 5 9.5S7.01 5 9.5 5 14 7.01 14 9.5 11.99 14 9.5 14z"/>
  </symbol>
</svg>
